<mxfile host="65bd71144e" modified="2021-03-02T00:35:47.254Z" agent="5.0 (Windows NT 10.0; Win64; x64) AppleWebKit/537.36 (KHTML, like Gecko) Code/1.53.2 Chrome/87.0.4280.141 Electron/11.2.1 Safari/537.36" etag="_KR6xd7uBqRF7_3iHREP" version="14.2.4" type="embed" pages="3">
    <diagram id="WgTbw2RFxtw-htJaEty-" name="ERD">
        <mxGraphModel dx="1154" dy="440" grid="1" gridSize="10" guides="1" tooltips="1" connect="1" arrows="1" fold="1" page="1" pageScale="1" pageWidth="850" pageHeight="1100" math="0" shadow="0">
            <root>
                <mxCell id="0"/>
                <mxCell id="1" parent="0"/>
                <mxCell id="rzQabX_f39-uxVWJCgJ8-1" value="User" style="shape=table;html=1;whiteSpace=wrap;startSize=30;container=1;collapsible=0;childLayout=tableLayout;fixedRows=1;rowLines=0;fontStyle=1;align=center;" parent="1" vertex="1">
                    <mxGeometry x="120" y="160" width="230" height="300" as="geometry"/>
                </mxCell>
                <mxCell id="rzQabX_f39-uxVWJCgJ8-2" value="" style="shape=partialRectangle;html=1;whiteSpace=wrap;collapsible=0;dropTarget=0;pointerEvents=0;fillColor=none;top=0;left=0;bottom=1;right=0;points=[[0,0.5],[1,0.5]];portConstraint=eastwest;" parent="rzQabX_f39-uxVWJCgJ8-1" vertex="1">
                    <mxGeometry y="30" width="230" height="30" as="geometry"/>
                </mxCell>
                <mxCell id="rzQabX_f39-uxVWJCgJ8-3" value="_id" style="shape=partialRectangle;html=1;whiteSpace=wrap;connectable=0;fillColor=none;top=0;left=0;bottom=0;right=0;overflow=hidden;" parent="rzQabX_f39-uxVWJCgJ8-2" vertex="1">
                    <mxGeometry width="89" height="30" as="geometry"/>
                </mxCell>
                <mxCell id="rzQabX_f39-uxVWJCgJ8-4" value="_idObject" style="shape=partialRectangle;html=1;whiteSpace=wrap;connectable=0;fillColor=none;top=0;left=0;bottom=0;right=0;align=left;spacingLeft=6;overflow=hidden;" parent="rzQabX_f39-uxVWJCgJ8-2" vertex="1">
                    <mxGeometry x="89" width="141" height="30" as="geometry"/>
                </mxCell>
                <mxCell id="rzQabX_f39-uxVWJCgJ8-5" value="" style="shape=partialRectangle;html=1;whiteSpace=wrap;collapsible=0;dropTarget=0;pointerEvents=0;fillColor=none;top=0;left=0;bottom=0;right=0;points=[[0,0.5],[1,0.5]];portConstraint=eastwest;" parent="rzQabX_f39-uxVWJCgJ8-1" vertex="1">
                    <mxGeometry y="60" width="230" height="30" as="geometry"/>
                </mxCell>
                <mxCell id="rzQabX_f39-uxVWJCgJ8-6" value="following" style="shape=partialRectangle;html=1;whiteSpace=wrap;connectable=0;fillColor=none;top=0;left=0;bottom=0;right=0;overflow=hidden;" parent="rzQabX_f39-uxVWJCgJ8-5" vertex="1">
                    <mxGeometry width="89" height="30" as="geometry"/>
                </mxCell>
                <mxCell id="rzQabX_f39-uxVWJCgJ8-7" value="[_idObject]" style="shape=partialRectangle;html=1;whiteSpace=wrap;connectable=0;fillColor=none;top=0;left=0;bottom=0;right=0;align=left;spacingLeft=6;overflow=hidden;" parent="rzQabX_f39-uxVWJCgJ8-5" vertex="1">
                    <mxGeometry x="89" width="141" height="30" as="geometry"/>
                </mxCell>
                <mxCell id="rzQabX_f39-uxVWJCgJ8-8" value="" style="shape=partialRectangle;html=1;whiteSpace=wrap;collapsible=0;dropTarget=0;pointerEvents=0;fillColor=none;top=0;left=0;bottom=0;right=0;points=[[0,0.5],[1,0.5]];portConstraint=eastwest;" parent="rzQabX_f39-uxVWJCgJ8-1" vertex="1">
                    <mxGeometry y="90" width="230" height="30" as="geometry"/>
                </mxCell>
                <mxCell id="rzQabX_f39-uxVWJCgJ8-9" value="username" style="shape=partialRectangle;html=1;whiteSpace=wrap;connectable=0;fillColor=none;top=0;left=0;bottom=0;right=0;overflow=hidden;" parent="rzQabX_f39-uxVWJCgJ8-8" vertex="1">
                    <mxGeometry width="89" height="30" as="geometry"/>
                </mxCell>
                <mxCell id="rzQabX_f39-uxVWJCgJ8-10" value="String" style="shape=partialRectangle;html=1;whiteSpace=wrap;connectable=0;fillColor=none;top=0;left=0;bottom=0;right=0;align=left;spacingLeft=6;overflow=hidden;" parent="rzQabX_f39-uxVWJCgJ8-8" vertex="1">
                    <mxGeometry x="89" width="141" height="30" as="geometry"/>
                </mxCell>
                <mxCell id="rzQabX_f39-uxVWJCgJ8-11" style="shape=partialRectangle;html=1;whiteSpace=wrap;collapsible=0;dropTarget=0;pointerEvents=0;fillColor=none;top=0;left=0;bottom=0;right=0;points=[[0,0.5],[1,0.5]];portConstraint=eastwest;" parent="rzQabX_f39-uxVWJCgJ8-1" vertex="1">
                    <mxGeometry y="120" width="230" height="30" as="geometry"/>
                </mxCell>
                <mxCell id="rzQabX_f39-uxVWJCgJ8-12" value="password" style="shape=partialRectangle;html=1;whiteSpace=wrap;connectable=0;fillColor=none;top=0;left=0;bottom=0;right=0;overflow=hidden;" parent="rzQabX_f39-uxVWJCgJ8-11" vertex="1">
                    <mxGeometry width="89" height="30" as="geometry"/>
                </mxCell>
                <mxCell id="rzQabX_f39-uxVWJCgJ8-13" value="String" style="shape=partialRectangle;html=1;whiteSpace=wrap;connectable=0;fillColor=none;top=0;left=0;bottom=0;right=0;align=left;spacingLeft=6;overflow=hidden;" parent="rzQabX_f39-uxVWJCgJ8-11" vertex="1">
                    <mxGeometry x="89" width="141" height="30" as="geometry"/>
                </mxCell>
                <mxCell id="rzQabX_f39-uxVWJCgJ8-14" style="shape=partialRectangle;html=1;whiteSpace=wrap;collapsible=0;dropTarget=0;pointerEvents=0;fillColor=none;top=0;left=0;bottom=0;right=0;points=[[0,0.5],[1,0.5]];portConstraint=eastwest;" parent="rzQabX_f39-uxVWJCgJ8-1" vertex="1">
                    <mxGeometry y="150" width="230" height="30" as="geometry"/>
                </mxCell>
                <mxCell id="rzQabX_f39-uxVWJCgJ8-15" value="profile pic url" style="shape=partialRectangle;html=1;whiteSpace=wrap;connectable=0;fillColor=none;top=0;left=0;bottom=0;right=0;overflow=hidden;" parent="rzQabX_f39-uxVWJCgJ8-14" vertex="1">
                    <mxGeometry width="89" height="30" as="geometry"/>
                </mxCell>
                <mxCell id="rzQabX_f39-uxVWJCgJ8-16" value="String" style="shape=partialRectangle;html=1;whiteSpace=wrap;connectable=0;fillColor=none;top=0;left=0;bottom=0;right=0;align=left;spacingLeft=6;overflow=hidden;" parent="rzQabX_f39-uxVWJCgJ8-14" vertex="1">
                    <mxGeometry x="89" width="141" height="30" as="geometry"/>
                </mxCell>
                <mxCell id="rzQabX_f39-uxVWJCgJ8-17" style="shape=partialRectangle;html=1;whiteSpace=wrap;collapsible=0;dropTarget=0;pointerEvents=0;fillColor=none;top=0;left=0;bottom=0;right=0;points=[[0,0.5],[1,0.5]];portConstraint=eastwest;" parent="rzQabX_f39-uxVWJCgJ8-1" vertex="1">
                    <mxGeometry y="180" width="230" height="30" as="geometry"/>
                </mxCell>
                <mxCell id="rzQabX_f39-uxVWJCgJ8-18" value="about" style="shape=partialRectangle;html=1;whiteSpace=wrap;connectable=0;fillColor=none;top=0;left=0;bottom=0;right=0;overflow=hidden;" parent="rzQabX_f39-uxVWJCgJ8-17" vertex="1">
                    <mxGeometry width="89" height="30" as="geometry"/>
                </mxCell>
                <mxCell id="rzQabX_f39-uxVWJCgJ8-19" value="String" style="shape=partialRectangle;html=1;whiteSpace=wrap;connectable=0;fillColor=none;top=0;left=0;bottom=0;right=0;align=left;spacingLeft=6;overflow=hidden;" parent="rzQabX_f39-uxVWJCgJ8-17" vertex="1">
                    <mxGeometry x="89" width="141" height="30" as="geometry"/>
                </mxCell>
                <mxCell id="rzQabX_f39-uxVWJCgJ8-20" style="shape=partialRectangle;html=1;whiteSpace=wrap;collapsible=0;dropTarget=0;pointerEvents=0;fillColor=none;top=0;left=0;bottom=0;right=0;points=[[0,0.5],[1,0.5]];portConstraint=eastwest;" parent="rzQabX_f39-uxVWJCgJ8-1" vertex="1">
                    <mxGeometry y="210" width="230" height="30" as="geometry"/>
                </mxCell>
                <mxCell id="rzQabX_f39-uxVWJCgJ8-21" style="shape=partialRectangle;html=1;whiteSpace=wrap;connectable=0;fillColor=none;top=0;left=0;bottom=0;right=0;overflow=hidden;" parent="rzQabX_f39-uxVWJCgJ8-20" vertex="1">
                    <mxGeometry width="89" height="30" as="geometry"/>
                </mxCell>
                <mxCell id="rzQabX_f39-uxVWJCgJ8-22" style="shape=partialRectangle;html=1;whiteSpace=wrap;connectable=0;fillColor=none;top=0;left=0;bottom=0;right=0;align=left;spacingLeft=6;overflow=hidden;" parent="rzQabX_f39-uxVWJCgJ8-20" vertex="1">
                    <mxGeometry x="89" width="141" height="30" as="geometry"/>
                </mxCell>
                <mxCell id="rzQabX_f39-uxVWJCgJ8-23" style="shape=partialRectangle;html=1;whiteSpace=wrap;collapsible=0;dropTarget=0;pointerEvents=0;fillColor=none;top=0;left=0;bottom=0;right=0;points=[[0,0.5],[1,0.5]];portConstraint=eastwest;" parent="rzQabX_f39-uxVWJCgJ8-1" vertex="1">
                    <mxGeometry y="240" width="230" height="30" as="geometry"/>
                </mxCell>
                <mxCell id="rzQabX_f39-uxVWJCgJ8-24" style="shape=partialRectangle;html=1;whiteSpace=wrap;connectable=0;fillColor=none;top=0;left=0;bottom=0;right=0;overflow=hidden;" parent="rzQabX_f39-uxVWJCgJ8-23" vertex="1">
                    <mxGeometry width="89" height="30" as="geometry"/>
                </mxCell>
                <mxCell id="rzQabX_f39-uxVWJCgJ8-25" style="shape=partialRectangle;html=1;whiteSpace=wrap;connectable=0;fillColor=none;top=0;left=0;bottom=0;right=0;align=left;spacingLeft=6;overflow=hidden;" parent="rzQabX_f39-uxVWJCgJ8-23" vertex="1">
                    <mxGeometry x="89" width="141" height="30" as="geometry"/>
                </mxCell>
                <mxCell id="rzQabX_f39-uxVWJCgJ8-52" style="edgeStyle=orthogonalEdgeStyle;rounded=0;orthogonalLoop=1;jettySize=auto;html=1;exitX=1;exitY=0.5;exitDx=0;exitDy=0;entryX=1;entryY=0.5;entryDx=0;entryDy=0;" parent="rzQabX_f39-uxVWJCgJ8-1" source="rzQabX_f39-uxVWJCgJ8-5" target="rzQabX_f39-uxVWJCgJ8-2" edge="1">
                    <mxGeometry relative="1" as="geometry">
                        <mxPoint x="270" y="50" as="targetPoint"/>
                        <Array as="points">
                            <mxPoint x="260" y="75"/>
                            <mxPoint x="260" y="45"/>
                        </Array>
                    </mxGeometry>
                </mxCell>
                <mxCell id="rzQabX_f39-uxVWJCgJ8-26" value="posts" style="shape=table;html=1;whiteSpace=wrap;startSize=30;container=1;collapsible=0;childLayout=tableLayout;fixedRows=1;rowLines=0;fontStyle=1;align=center;" parent="1" vertex="1">
                    <mxGeometry x="500" y="160" width="230" height="300" as="geometry"/>
                </mxCell>
                <mxCell id="rzQabX_f39-uxVWJCgJ8-27" value="" style="shape=partialRectangle;html=1;whiteSpace=wrap;collapsible=0;dropTarget=0;pointerEvents=0;fillColor=none;top=0;left=0;bottom=1;right=0;points=[[0,0.5],[1,0.5]];portConstraint=eastwest;" parent="rzQabX_f39-uxVWJCgJ8-26" vertex="1">
                    <mxGeometry y="30" width="230" height="30" as="geometry"/>
                </mxCell>
                <mxCell id="rzQabX_f39-uxVWJCgJ8-28" value="_id" style="shape=partialRectangle;html=1;whiteSpace=wrap;connectable=0;fillColor=none;top=0;left=0;bottom=0;right=0;overflow=hidden;" parent="rzQabX_f39-uxVWJCgJ8-27" vertex="1">
                    <mxGeometry width="89" height="30" as="geometry"/>
                </mxCell>
                <mxCell id="rzQabX_f39-uxVWJCgJ8-29" value="_idObject" style="shape=partialRectangle;html=1;whiteSpace=wrap;connectable=0;fillColor=none;top=0;left=0;bottom=0;right=0;align=left;spacingLeft=6;overflow=hidden;" parent="rzQabX_f39-uxVWJCgJ8-27" vertex="1">
                    <mxGeometry x="89" width="141" height="30" as="geometry"/>
                </mxCell>
                <mxCell id="rzQabX_f39-uxVWJCgJ8-30" value="" style="shape=partialRectangle;html=1;whiteSpace=wrap;collapsible=0;dropTarget=0;pointerEvents=0;fillColor=none;top=0;left=0;bottom=0;right=0;points=[[0,0.5],[1,0.5]];portConstraint=eastwest;" parent="rzQabX_f39-uxVWJCgJ8-26" vertex="1">
                    <mxGeometry y="60" width="230" height="30" as="geometry"/>
                </mxCell>
                <mxCell id="rzQabX_f39-uxVWJCgJ8-31" value="owner" style="shape=partialRectangle;html=1;whiteSpace=wrap;connectable=0;fillColor=none;top=0;left=0;bottom=0;right=0;overflow=hidden;" parent="rzQabX_f39-uxVWJCgJ8-30" vertex="1">
                    <mxGeometry width="89" height="30" as="geometry"/>
                </mxCell>
                <mxCell id="rzQabX_f39-uxVWJCgJ8-32" value="_idObject" style="shape=partialRectangle;html=1;whiteSpace=wrap;connectable=0;fillColor=none;top=0;left=0;bottom=0;right=0;align=left;spacingLeft=6;overflow=hidden;" parent="rzQabX_f39-uxVWJCgJ8-30" vertex="1">
                    <mxGeometry x="89" width="141" height="30" as="geometry"/>
                </mxCell>
                <mxCell id="rzQabX_f39-uxVWJCgJ8-33" value="" style="shape=partialRectangle;html=1;whiteSpace=wrap;collapsible=0;dropTarget=0;pointerEvents=0;fillColor=none;top=0;left=0;bottom=0;right=0;points=[[0,0.5],[1,0.5]];portConstraint=eastwest;" parent="rzQabX_f39-uxVWJCgJ8-26" vertex="1">
                    <mxGeometry y="90" width="230" height="30" as="geometry"/>
                </mxCell>
                <mxCell id="rzQabX_f39-uxVWJCgJ8-34" value="content" style="shape=partialRectangle;html=1;whiteSpace=wrap;connectable=0;fillColor=none;top=0;left=0;bottom=0;right=0;overflow=hidden;" parent="rzQabX_f39-uxVWJCgJ8-33" vertex="1">
                    <mxGeometry width="89" height="30" as="geometry"/>
                </mxCell>
                <mxCell id="rzQabX_f39-uxVWJCgJ8-35" value="String" style="shape=partialRectangle;html=1;whiteSpace=wrap;connectable=0;fillColor=none;top=0;left=0;bottom=0;right=0;align=left;spacingLeft=6;overflow=hidden;" parent="rzQabX_f39-uxVWJCgJ8-33" vertex="1">
                    <mxGeometry x="89" width="141" height="30" as="geometry"/>
                </mxCell>
                <mxCell id="rzQabX_f39-uxVWJCgJ8-36" style="shape=partialRectangle;html=1;whiteSpace=wrap;collapsible=0;dropTarget=0;pointerEvents=0;fillColor=none;top=0;left=0;bottom=0;right=0;points=[[0,0.5],[1,0.5]];portConstraint=eastwest;" parent="rzQabX_f39-uxVWJCgJ8-26" vertex="1">
                    <mxGeometry y="120" width="230" height="30" as="geometry"/>
                </mxCell>
                <mxCell id="rzQabX_f39-uxVWJCgJ8-37" value="" style="shape=partialRectangle;html=1;whiteSpace=wrap;connectable=0;fillColor=none;top=0;left=0;bottom=0;right=0;overflow=hidden;" parent="rzQabX_f39-uxVWJCgJ8-36" vertex="1">
                    <mxGeometry width="89" height="30" as="geometry"/>
                </mxCell>
                <mxCell id="rzQabX_f39-uxVWJCgJ8-38" value="" style="shape=partialRectangle;html=1;whiteSpace=wrap;connectable=0;fillColor=none;top=0;left=0;bottom=0;right=0;align=left;spacingLeft=6;overflow=hidden;" parent="rzQabX_f39-uxVWJCgJ8-36" vertex="1">
                    <mxGeometry x="89" width="141" height="30" as="geometry"/>
                </mxCell>
                <mxCell id="rzQabX_f39-uxVWJCgJ8-39" style="shape=partialRectangle;html=1;whiteSpace=wrap;collapsible=0;dropTarget=0;pointerEvents=0;fillColor=none;top=0;left=0;bottom=0;right=0;points=[[0,0.5],[1,0.5]];portConstraint=eastwest;" parent="rzQabX_f39-uxVWJCgJ8-26" vertex="1">
                    <mxGeometry y="150" width="230" height="30" as="geometry"/>
                </mxCell>
                <mxCell id="rzQabX_f39-uxVWJCgJ8-40" value="pic url" style="shape=partialRectangle;html=1;whiteSpace=wrap;connectable=0;fillColor=none;top=0;left=0;bottom=0;right=0;overflow=hidden;" parent="rzQabX_f39-uxVWJCgJ8-39" vertex="1">
                    <mxGeometry width="89" height="30" as="geometry"/>
                </mxCell>
                <mxCell id="rzQabX_f39-uxVWJCgJ8-41" value="String" style="shape=partialRectangle;html=1;whiteSpace=wrap;connectable=0;fillColor=none;top=0;left=0;bottom=0;right=0;align=left;spacingLeft=6;overflow=hidden;" parent="rzQabX_f39-uxVWJCgJ8-39" vertex="1">
                    <mxGeometry x="89" width="141" height="30" as="geometry"/>
                </mxCell>
                <mxCell id="rzQabX_f39-uxVWJCgJ8-53" style="edgeStyle=orthogonalEdgeStyle;rounded=0;orthogonalLoop=1;jettySize=auto;html=1;exitX=1;exitY=0.5;exitDx=0;exitDy=0;" parent="rzQabX_f39-uxVWJCgJ8-26" source="rzQabX_f39-uxVWJCgJ8-42" target="rzQabX_f39-uxVWJCgJ8-27" edge="1">
                    <mxGeometry relative="1" as="geometry"/>
                </mxCell>
                <mxCell id="rzQabX_f39-uxVWJCgJ8-42" style="shape=partialRectangle;html=1;whiteSpace=wrap;collapsible=0;dropTarget=0;pointerEvents=0;fillColor=none;top=0;left=0;bottom=0;right=0;points=[[0,0.5],[1,0.5]];portConstraint=eastwest;" parent="rzQabX_f39-uxVWJCgJ8-26" vertex="1">
                    <mxGeometry y="180" width="230" height="30" as="geometry"/>
                </mxCell>
                <mxCell id="rzQabX_f39-uxVWJCgJ8-43" value="&lt;b&gt;replys&lt;/b&gt;" style="shape=partialRectangle;html=1;whiteSpace=wrap;connectable=0;fillColor=none;top=0;left=0;bottom=0;right=0;overflow=hidden;" parent="rzQabX_f39-uxVWJCgJ8-42" vertex="1">
                    <mxGeometry width="89" height="30" as="geometry"/>
                </mxCell>
                <mxCell id="rzQabX_f39-uxVWJCgJ8-44" value="&lt;span&gt;[_idObject]&lt;/span&gt;" style="shape=partialRectangle;html=1;whiteSpace=wrap;connectable=0;fillColor=none;top=0;left=0;bottom=0;right=0;align=left;spacingLeft=6;overflow=hidden;" parent="rzQabX_f39-uxVWJCgJ8-42" vertex="1">
                    <mxGeometry x="89" width="141" height="30" as="geometry"/>
                </mxCell>
                <mxCell id="rzQabX_f39-uxVWJCgJ8-45" style="shape=partialRectangle;html=1;whiteSpace=wrap;collapsible=0;dropTarget=0;pointerEvents=0;fillColor=none;top=0;left=0;bottom=0;right=0;points=[[0,0.5],[1,0.5]];portConstraint=eastwest;" parent="rzQabX_f39-uxVWJCgJ8-26" vertex="1">
                    <mxGeometry y="210" width="230" height="30" as="geometry"/>
                </mxCell>
                <mxCell id="rzQabX_f39-uxVWJCgJ8-46" value="magintude" style="shape=partialRectangle;html=1;whiteSpace=wrap;connectable=0;fillColor=none;top=0;left=0;bottom=0;right=0;overflow=hidden;" parent="rzQabX_f39-uxVWJCgJ8-45" vertex="1">
                    <mxGeometry width="89" height="30" as="geometry"/>
                </mxCell>
                <mxCell id="rzQabX_f39-uxVWJCgJ8-47" value="Number" style="shape=partialRectangle;html=1;whiteSpace=wrap;connectable=0;fillColor=none;top=0;left=0;bottom=0;right=0;align=left;spacingLeft=6;overflow=hidden;" parent="rzQabX_f39-uxVWJCgJ8-45" vertex="1">
                    <mxGeometry x="89" width="141" height="30" as="geometry"/>
                </mxCell>
                <mxCell id="rzQabX_f39-uxVWJCgJ8-48" style="shape=partialRectangle;html=1;whiteSpace=wrap;collapsible=0;dropTarget=0;pointerEvents=0;fillColor=none;top=0;left=0;bottom=0;right=0;points=[[0,0.5],[1,0.5]];portConstraint=eastwest;" parent="rzQabX_f39-uxVWJCgJ8-26" vertex="1">
                    <mxGeometry y="240" width="230" height="30" as="geometry"/>
                </mxCell>
                <mxCell id="rzQabX_f39-uxVWJCgJ8-49" value="created" style="shape=partialRectangle;html=1;whiteSpace=wrap;connectable=0;fillColor=none;top=0;left=0;bottom=0;right=0;overflow=hidden;" parent="rzQabX_f39-uxVWJCgJ8-48" vertex="1">
                    <mxGeometry width="89" height="30" as="geometry"/>
                </mxCell>
                <mxCell id="rzQabX_f39-uxVWJCgJ8-50" value="Date" style="shape=partialRectangle;html=1;whiteSpace=wrap;connectable=0;fillColor=none;top=0;left=0;bottom=0;right=0;align=left;spacingLeft=6;overflow=hidden;" parent="rzQabX_f39-uxVWJCgJ8-48" vertex="1">
                    <mxGeometry x="89" width="141" height="30" as="geometry"/>
                </mxCell>
                <mxCell id="rzQabX_f39-uxVWJCgJ8-51" style="edgeStyle=orthogonalEdgeStyle;rounded=0;orthogonalLoop=1;jettySize=auto;html=1;entryX=1;entryY=0.5;entryDx=0;entryDy=0;" parent="1" source="rzQabX_f39-uxVWJCgJ8-30" target="rzQabX_f39-uxVWJCgJ8-2" edge="1">
                    <mxGeometry relative="1" as="geometry"/>
                </mxCell>
            </root>
        </mxGraphModel>
    </diagram>
    <diagram id="gZFiICzabFOCyJ3YJFWu" name="Wireframe">
        <mxGraphModel dx="1358" dy="518" grid="1" gridSize="10" guides="1" tooltips="1" connect="1" arrows="1" fold="1" page="1" pageScale="1" pageWidth="850" pageHeight="1100" math="0" shadow="0">
            <root>
                <mxCell id="pbGlWKhj_PCLJJAy0kOe-0"/>
                <mxCell id="pbGlWKhj_PCLJJAy0kOe-1" parent="pbGlWKhj_PCLJJAy0kOe-0"/>
                <mxCell id="fgpPtm4yzKUBjOOxffj8-0" value="" style="rounded=0;whiteSpace=wrap;html=1;" parent="pbGlWKhj_PCLJJAy0kOe-1" vertex="1">
                    <mxGeometry x="170" y="60" width="490" height="760" as="geometry"/>
                </mxCell>
                <mxCell id="fgpPtm4yzKUBjOOxffj8-1" value="Sign In" style="rounded=0;whiteSpace=wrap;html=1;" parent="pbGlWKhj_PCLJJAy0kOe-1" vertex="1">
                    <mxGeometry x="520" y="60" width="70" height="40" as="geometry"/>
                </mxCell>
                <mxCell id="fgpPtm4yzKUBjOOxffj8-2" value="Sign Up" style="rounded=0;whiteSpace=wrap;html=1;" parent="pbGlWKhj_PCLJJAy0kOe-1" vertex="1">
                    <mxGeometry x="590" y="60" width="70" height="40" as="geometry"/>
                </mxCell>
                <mxCell id="fgpPtm4yzKUBjOOxffj8-3" value="Logo" style="rounded=0;whiteSpace=wrap;html=1;" parent="pbGlWKhj_PCLJJAy0kOe-1" vertex="1">
                    <mxGeometry x="170" y="60" width="50" height="50" as="geometry"/>
                </mxCell>
                <mxCell id="fgpPtm4yzKUBjOOxffj8-4" value="Seismo" style="text;html=1;strokeColor=none;fillColor=none;align=center;verticalAlign=middle;whiteSpace=wrap;rounded=0;fontSize=22;" parent="pbGlWKhj_PCLJJAy0kOe-1" vertex="1">
                    <mxGeometry x="250" y="75" width="40" height="20" as="geometry"/>
                </mxCell>
                <mxCell id="fgpPtm4yzKUBjOOxffj8-32" value="Top 10 post" style="whiteSpace=wrap;html=1;aspect=fixed;fontSize=22;" parent="pbGlWKhj_PCLJJAy0kOe-1" vertex="1">
                    <mxGeometry x="260" y="180" width="300" height="300" as="geometry"/>
                </mxCell>
                <mxCell id="fgpPtm4yzKUBjOOxffj8-33" value="" style="rounded=0;whiteSpace=wrap;html=1;" parent="pbGlWKhj_PCLJJAy0kOe-1" vertex="1">
                    <mxGeometry x="760" y="60" width="490" height="760" as="geometry"/>
                </mxCell>
                <mxCell id="fgpPtm4yzKUBjOOxffj8-34" value="My Profile" style="rounded=0;whiteSpace=wrap;html=1;" parent="pbGlWKhj_PCLJJAy0kOe-1" vertex="1">
                    <mxGeometry x="1110" y="60" width="70" height="40" as="geometry"/>
                </mxCell>
                <mxCell id="fgpPtm4yzKUBjOOxffj8-35" value="Logout" style="rounded=0;whiteSpace=wrap;html=1;" parent="pbGlWKhj_PCLJJAy0kOe-1" vertex="1">
                    <mxGeometry x="1180" y="60" width="70" height="40" as="geometry"/>
                </mxCell>
                <mxCell id="fgpPtm4yzKUBjOOxffj8-36" value="Logo" style="rounded=0;whiteSpace=wrap;html=1;" parent="pbGlWKhj_PCLJJAy0kOe-1" vertex="1">
                    <mxGeometry x="760" y="60" width="50" height="50" as="geometry"/>
                </mxCell>
                <mxCell id="fgpPtm4yzKUBjOOxffj8-37" value="Seismo" style="text;html=1;strokeColor=none;fillColor=none;align=center;verticalAlign=middle;whiteSpace=wrap;rounded=0;fontSize=22;" parent="pbGlWKhj_PCLJJAy0kOe-1" vertex="1">
                    <mxGeometry x="840" y="75" width="40" height="20" as="geometry"/>
                </mxCell>
                <mxCell id="fgpPtm4yzKUBjOOxffj8-38" value="Top 10 post" style="whiteSpace=wrap;html=1;aspect=fixed;fontSize=22;" parent="pbGlWKhj_PCLJJAy0kOe-1" vertex="1">
                    <mxGeometry x="850" y="450" width="300" height="300" as="geometry"/>
                </mxCell>
                <mxCell id="fgpPtm4yzKUBjOOxffj8-39" value="Follower's last&amp;nbsp;&lt;br&gt;&amp;nbsp;10 post" style="whiteSpace=wrap;html=1;aspect=fixed;fontSize=22;" parent="pbGlWKhj_PCLJJAy0kOe-1" vertex="1">
                    <mxGeometry x="850" y="130" width="300" height="300" as="geometry"/>
                </mxCell>
                <mxCell id="fgpPtm4yzKUBjOOxffj8-41" value="" style="rounded=0;whiteSpace=wrap;html=1;" parent="pbGlWKhj_PCLJJAy0kOe-1" vertex="1">
                    <mxGeometry x="1320" y="60" width="490" height="760" as="geometry"/>
                </mxCell>
                <mxCell id="fgpPtm4yzKUBjOOxffj8-42" value="My Profile" style="rounded=0;whiteSpace=wrap;html=1;" parent="pbGlWKhj_PCLJJAy0kOe-1" vertex="1">
                    <mxGeometry x="1670" y="60" width="70" height="40" as="geometry"/>
                </mxCell>
                <mxCell id="fgpPtm4yzKUBjOOxffj8-43" value="Logout" style="rounded=0;whiteSpace=wrap;html=1;" parent="pbGlWKhj_PCLJJAy0kOe-1" vertex="1">
                    <mxGeometry x="1740" y="60" width="70" height="40" as="geometry"/>
                </mxCell>
                <mxCell id="fgpPtm4yzKUBjOOxffj8-44" value="Logo" style="rounded=0;whiteSpace=wrap;html=1;" parent="pbGlWKhj_PCLJJAy0kOe-1" vertex="1">
                    <mxGeometry x="1320" y="60" width="50" height="50" as="geometry"/>
                </mxCell>
                <mxCell id="fgpPtm4yzKUBjOOxffj8-45" value="Seismo" style="text;html=1;strokeColor=none;fillColor=none;align=center;verticalAlign=middle;whiteSpace=wrap;rounded=0;fontSize=22;" parent="pbGlWKhj_PCLJJAy0kOe-1" vertex="1">
                    <mxGeometry x="1400" y="75" width="40" height="20" as="geometry"/>
                </mxCell>
                <mxCell id="fgpPtm4yzKUBjOOxffj8-47" value="Follower's last&amp;nbsp;&lt;br&gt;&amp;nbsp;10 post" style="whiteSpace=wrap;html=1;aspect=fixed;fontSize=22;" parent="pbGlWKhj_PCLJJAy0kOe-1" vertex="1">
                    <mxGeometry x="1415" y="450" width="300" height="300" as="geometry"/>
                </mxCell>
                <mxCell id="fgpPtm4yzKUBjOOxffj8-48" value="My last 10 post" style="whiteSpace=wrap;html=1;aspect=fixed;fontSize=22;" parent="pbGlWKhj_PCLJJAy0kOe-1" vertex="1">
                    <mxGeometry x="1415" y="130" width="300" height="300" as="geometry"/>
                </mxCell>
                <mxCell id="xW_-LYcdHIb3K_CKWbbq-0" value="Setting" style="rounded=0;whiteSpace=wrap;html=1;" parent="pbGlWKhj_PCLJJAy0kOe-1" vertex="1">
                    <mxGeometry x="1600" y="60" width="70" height="40" as="geometry"/>
                </mxCell>
                <mxCell id="xW_-LYcdHIb3K_CKWbbq-1" value="" style="rounded=1;whiteSpace=wrap;html=1;fontSize=22;" parent="pbGlWKhj_PCLJJAy0kOe-1" vertex="1">
                    <mxGeometry x="170" y="840" width="490" height="100" as="geometry"/>
                </mxCell>
                <mxCell id="xW_-LYcdHIb3K_CKWbbq-2" value="Pic" style="ellipse;whiteSpace=wrap;html=1;aspect=fixed;fontSize=22;" parent="pbGlWKhj_PCLJJAy0kOe-1" vertex="1">
                    <mxGeometry x="180" y="850" width="60" height="60" as="geometry"/>
                </mxCell>
                <mxCell id="xW_-LYcdHIb3K_CKWbbq-3" value="Text content" style="rounded=1;whiteSpace=wrap;html=1;fontSize=22;" parent="pbGlWKhj_PCLJJAy0kOe-1" vertex="1">
                    <mxGeometry x="250" y="850" width="390" height="60" as="geometry"/>
                </mxCell>
                <mxCell id="xW_-LYcdHIb3K_CKWbbq-4" value="" style="rounded=1;whiteSpace=wrap;html=1;fontSize=22;" parent="pbGlWKhj_PCLJJAy0kOe-1" vertex="1">
                    <mxGeometry x="170" y="950" width="490" height="100" as="geometry"/>
                </mxCell>
                <mxCell id="xW_-LYcdHIb3K_CKWbbq-5" value="Pic" style="ellipse;whiteSpace=wrap;html=1;aspect=fixed;fontSize=22;" parent="pbGlWKhj_PCLJJAy0kOe-1" vertex="1">
                    <mxGeometry x="180" y="960" width="60" height="60" as="geometry"/>
                </mxCell>
                <mxCell id="xW_-LYcdHIb3K_CKWbbq-6" value="Text content" style="rounded=1;whiteSpace=wrap;html=1;fontSize=22;" parent="pbGlWKhj_PCLJJAy0kOe-1" vertex="1">
                    <mxGeometry x="250" y="960" width="390" height="60" as="geometry"/>
                </mxCell>
                <mxCell id="xW_-LYcdHIb3K_CKWbbq-7" value="Edit" style="text;html=1;strokeColor=none;fillColor=none;align=center;verticalAlign=middle;whiteSpace=wrap;rounded=0;fontSize=22;" parent="pbGlWKhj_PCLJJAy0kOe-1" vertex="1">
                    <mxGeometry x="520" y="1030" width="40" height="20" as="geometry"/>
                </mxCell>
                <mxCell id="xW_-LYcdHIb3K_CKWbbq-8" value="Delete" style="text;html=1;strokeColor=none;fillColor=none;align=center;verticalAlign=middle;whiteSpace=wrap;rounded=0;fontSize=22;" parent="pbGlWKhj_PCLJJAy0kOe-1" vertex="1">
                    <mxGeometry x="590" y="1030" width="40" height="20" as="geometry"/>
                </mxCell>
                <mxCell id="xW_-LYcdHIb3K_CKWbbq-10" value="Reply" style="text;html=1;strokeColor=none;fillColor=none;align=center;verticalAlign=middle;whiteSpace=wrap;rounded=0;fontSize=22;" parent="pbGlWKhj_PCLJJAy0kOe-1" vertex="1">
                    <mxGeometry x="590" y="920" width="40" height="20" as="geometry"/>
                </mxCell>
                <mxCell id="xW_-LYcdHIb3K_CKWbbq-11" value="Setting" style="rounded=0;whiteSpace=wrap;html=1;" parent="pbGlWKhj_PCLJJAy0kOe-1" vertex="1">
                    <mxGeometry x="1040" y="60" width="70" height="40" as="geometry"/>
                </mxCell>
                <mxCell id="gmQBS3_jwl4NWAHMbByH-0" value="" style="rounded=0;whiteSpace=wrap;html=1;fontSize=22;" parent="pbGlWKhj_PCLJJAy0kOe-1" vertex="1">
                    <mxGeometry x="800" y="850" width="380" height="460" as="geometry"/>
                </mxCell>
                <mxCell id="gmQBS3_jwl4NWAHMbByH-2" value="" style="rounded=1;whiteSpace=wrap;html=1;fontSize=22;" parent="pbGlWKhj_PCLJJAy0kOe-1" vertex="1">
                    <mxGeometry x="895" y="900" width="210" height="40" as="geometry"/>
                </mxCell>
                <mxCell id="gmQBS3_jwl4NWAHMbByH-3" value="" style="rounded=1;whiteSpace=wrap;html=1;fontSize=22;" parent="pbGlWKhj_PCLJJAy0kOe-1" vertex="1">
                    <mxGeometry x="895" y="990" width="210" height="40" as="geometry"/>
                </mxCell>
                <mxCell id="gmQBS3_jwl4NWAHMbByH-4" value="Submit" style="rounded=1;whiteSpace=wrap;html=1;fontSize=22;" parent="pbGlWKhj_PCLJJAy0kOe-1" vertex="1">
                    <mxGeometry x="950" y="1260" width="210" height="40" as="geometry"/>
                </mxCell>
                <mxCell id="gmQBS3_jwl4NWAHMbByH-5" value="User" style="text;html=1;strokeColor=none;fillColor=none;align=center;verticalAlign=middle;whiteSpace=wrap;rounded=0;fontSize=22;" parent="pbGlWKhj_PCLJJAy0kOe-1" vertex="1">
                    <mxGeometry x="830" y="910" width="40" height="20" as="geometry"/>
                </mxCell>
                <mxCell id="gmQBS3_jwl4NWAHMbByH-6" value="Pass" style="text;html=1;strokeColor=none;fillColor=none;align=center;verticalAlign=middle;whiteSpace=wrap;rounded=0;fontSize=22;" parent="pbGlWKhj_PCLJJAy0kOe-1" vertex="1">
                    <mxGeometry x="830" y="1000" width="40" height="20" as="geometry"/>
                </mxCell>
                <mxCell id="gmQBS3_jwl4NWAHMbByH-7" value="confirm" style="text;html=1;strokeColor=none;fillColor=none;align=center;verticalAlign=middle;whiteSpace=wrap;rounded=0;fontSize=22;" parent="pbGlWKhj_PCLJJAy0kOe-1" vertex="1">
                    <mxGeometry x="830" y="1080" width="40" height="20" as="geometry"/>
                </mxCell>
                <mxCell id="gmQBS3_jwl4NWAHMbByH-8" value="" style="rounded=1;whiteSpace=wrap;html=1;fontSize=22;" parent="pbGlWKhj_PCLJJAy0kOe-1" vertex="1">
                    <mxGeometry x="905" y="1080" width="210" height="40" as="geometry"/>
                </mxCell>
                <mxCell id="gmQBS3_jwl4NWAHMbByH-9" value="" style="rounded=0;whiteSpace=wrap;html=1;fontSize=22;" parent="pbGlWKhj_PCLJJAy0kOe-1" vertex="1">
                    <mxGeometry x="800" y="1350" width="380" height="460" as="geometry"/>
                </mxCell>
                <mxCell id="gmQBS3_jwl4NWAHMbByH-10" value="" style="rounded=1;whiteSpace=wrap;html=1;fontSize=22;" parent="pbGlWKhj_PCLJJAy0kOe-1" vertex="1">
                    <mxGeometry x="895" y="1400" width="210" height="40" as="geometry"/>
                </mxCell>
                <mxCell id="gmQBS3_jwl4NWAHMbByH-11" value="" style="rounded=1;whiteSpace=wrap;html=1;fontSize=22;" parent="pbGlWKhj_PCLJJAy0kOe-1" vertex="1">
                    <mxGeometry x="895" y="1490" width="210" height="40" as="geometry"/>
                </mxCell>
                <mxCell id="gmQBS3_jwl4NWAHMbByH-12" value="Login" style="rounded=1;whiteSpace=wrap;html=1;fontSize=22;" parent="pbGlWKhj_PCLJJAy0kOe-1" vertex="1">
                    <mxGeometry x="950" y="1760" width="210" height="40" as="geometry"/>
                </mxCell>
                <mxCell id="gmQBS3_jwl4NWAHMbByH-13" value="User" style="text;html=1;strokeColor=none;fillColor=none;align=center;verticalAlign=middle;whiteSpace=wrap;rounded=0;fontSize=22;" parent="pbGlWKhj_PCLJJAy0kOe-1" vertex="1">
                    <mxGeometry x="830" y="1410" width="40" height="20" as="geometry"/>
                </mxCell>
                <mxCell id="gmQBS3_jwl4NWAHMbByH-14" value="Pass" style="text;html=1;strokeColor=none;fillColor=none;align=center;verticalAlign=middle;whiteSpace=wrap;rounded=0;fontSize=22;" parent="pbGlWKhj_PCLJJAy0kOe-1" vertex="1">
                    <mxGeometry x="830" y="1500" width="40" height="20" as="geometry"/>
                </mxCell>
            </root>
        </mxGraphModel>
    </diagram>
    <diagram id="P7cK1iXobG5woIecWTiE" name="Process">
        <mxGraphModel dx="1360" dy="802" grid="1" gridSize="10" guides="1" tooltips="1" connect="1" arrows="1" fold="1" page="1" pageScale="1" pageWidth="850" pageHeight="1100" math="0" shadow="0">
            <root>
                <mxCell id="U1qoYTy0673jyCuHLi8l-0"/>
                <mxCell id="U1qoYTy0673jyCuHLi8l-1" parent="U1qoYTy0673jyCuHLi8l-0"/>
                <mxCell id="fxNARhFos9hMNA192cl9-0" value="MVP" style="rounded=1;whiteSpace=wrap;html=1;fillColor=#f8cecc;strokeColor=#b85450;" parent="U1qoYTy0673jyCuHLi8l-1" vertex="1">
                    <mxGeometry x="360" y="40" width="120" height="60" as="geometry"/>
                </mxCell>
                <mxCell id="fxNARhFos9hMNA192cl9-9" style="edgeStyle=orthogonalEdgeStyle;rounded=0;orthogonalLoop=1;jettySize=auto;html=1;entryX=0.25;entryY=1;entryDx=0;entryDy=0;fontSize=22;" parent="U1qoYTy0673jyCuHLi8l-1" source="fxNARhFos9hMNA192cl9-1" target="fxNARhFos9hMNA192cl9-0" edge="1">
                    <mxGeometry relative="1" as="geometry"/>
                </mxCell>
                <mxCell id="fxNARhFos9hMNA192cl9-1" value="Backend" style="rounded=1;whiteSpace=wrap;html=1;fillColor=#f8cecc;strokeColor=#b85450;" parent="U1qoYTy0673jyCuHLi8l-1" vertex="1">
                    <mxGeometry x="280" y="140" width="120" height="60" as="geometry"/>
                </mxCell>
                <mxCell id="fxNARhFos9hMNA192cl9-10" style="edgeStyle=orthogonalEdgeStyle;rounded=0;orthogonalLoop=1;jettySize=auto;html=1;exitX=0.5;exitY=0;exitDx=0;exitDy=0;entryX=0.699;entryY=0.997;entryDx=0;entryDy=0;entryPerimeter=0;fontSize=22;" parent="U1qoYTy0673jyCuHLi8l-1" source="fxNARhFos9hMNA192cl9-2" target="fxNARhFos9hMNA192cl9-0" edge="1">
                    <mxGeometry relative="1" as="geometry"/>
                </mxCell>
                <mxCell id="fxNARhFos9hMNA192cl9-2" value="Frontend" style="rounded=1;whiteSpace=wrap;html=1;fillColor=#f8cecc;strokeColor=#b85450;" parent="U1qoYTy0673jyCuHLi8l-1" vertex="1">
                    <mxGeometry x="1155" y="150" width="120" height="60" as="geometry"/>
                </mxCell>
                <mxCell id="fxNARhFos9hMNA192cl9-8" style="edgeStyle=orthogonalEdgeStyle;rounded=0;orthogonalLoop=1;jettySize=auto;html=1;exitX=1;exitY=0.5;exitDx=0;exitDy=0;fontSize=22;" parent="U1qoYTy0673jyCuHLi8l-1" source="fxNARhFos9hMNA192cl9-3" target="fxNARhFos9hMNA192cl9-0" edge="1">
                    <mxGeometry relative="1" as="geometry"/>
                </mxCell>
                <mxCell id="fxNARhFos9hMNA192cl9-3" value="DevOp" style="rounded=1;whiteSpace=wrap;html=1;fillColor=#f8cecc;strokeColor=#b85450;" parent="U1qoYTy0673jyCuHLi8l-1" vertex="1">
                    <mxGeometry x="190" y="40" width="120" height="60" as="geometry"/>
                </mxCell>
                <mxCell id="fxNARhFos9hMNA192cl9-7" style="edgeStyle=orthogonalEdgeStyle;rounded=0;orthogonalLoop=1;jettySize=auto;html=1;entryX=0;entryY=0.5;entryDx=0;entryDy=0;fontSize=22;" parent="U1qoYTy0673jyCuHLi8l-1" source="fxNARhFos9hMNA192cl9-4" target="fxNARhFos9hMNA192cl9-3" edge="1">
                    <mxGeometry relative="1" as="geometry"/>
                </mxCell>
                <mxCell id="fxNARhFos9hMNA192cl9-4" value="Heroku" style="rounded=1;whiteSpace=wrap;html=1;fillColor=#f8cecc;strokeColor=#b85450;" parent="U1qoYTy0673jyCuHLi8l-1" vertex="1">
                    <mxGeometry x="20" y="40" width="120" height="60" as="geometry"/>
                </mxCell>
                <mxCell id="fxNARhFos9hMNA192cl9-6" style="edgeStyle=orthogonalEdgeStyle;rounded=0;orthogonalLoop=1;jettySize=auto;html=1;fontSize=22;" parent="U1qoYTy0673jyCuHLi8l-1" source="fxNARhFos9hMNA192cl9-5" target="fxNARhFos9hMNA192cl9-4" edge="1">
                    <mxGeometry relative="1" as="geometry"/>
                </mxCell>
                <mxCell id="fxNARhFos9hMNA192cl9-5" value="Git Repo" style="rounded=1;whiteSpace=wrap;html=1;fillColor=#f8cecc;strokeColor=#b85450;" parent="U1qoYTy0673jyCuHLi8l-1" vertex="1">
                    <mxGeometry x="20" y="130" width="120" height="60" as="geometry"/>
                </mxCell>
                <mxCell id="fxNARhFos9hMNA192cl9-56" style="edgeStyle=orthogonalEdgeStyle;rounded=0;orthogonalLoop=1;jettySize=auto;html=1;exitX=0.5;exitY=0;exitDx=0;exitDy=0;entryX=0.375;entryY=1;entryDx=0;entryDy=0;entryPerimeter=0;fontSize=22;" parent="U1qoYTy0673jyCuHLi8l-1" source="fxNARhFos9hMNA192cl9-11" target="fxNARhFos9hMNA192cl9-1" edge="1">
                    <mxGeometry relative="1" as="geometry"/>
                </mxCell>
                <mxCell id="fxNARhFos9hMNA192cl9-11" value="API" style="rounded=1;whiteSpace=wrap;html=1;fillColor=#f8cecc;strokeColor=#b85450;" parent="U1qoYTy0673jyCuHLi8l-1" vertex="1">
                    <mxGeometry x="265.0000000000002" y="230" width="120" height="60" as="geometry"/>
                </mxCell>
                <mxCell id="fxNARhFos9hMNA192cl9-12" style="edgeStyle=orthogonalEdgeStyle;rounded=0;orthogonalLoop=1;jettySize=auto;html=1;exitX=0.5;exitY=0;exitDx=0;exitDy=0;entryX=1;entryY=0.5;entryDx=0;entryDy=0;fillColor=#f8cecc;" parent="U1qoYTy0673jyCuHLi8l-1" source="fxNARhFos9hMNA192cl9-13" target="fxNARhFos9hMNA192cl9-14" edge="1">
                    <mxGeometry relative="1" as="geometry"/>
                </mxCell>
                <mxCell id="fxNARhFos9hMNA192cl9-13" value="Controllers" style="rounded=1;whiteSpace=wrap;html=1;fillColor=#f8cecc;strokeColor=#b85450;" parent="U1qoYTy0673jyCuHLi8l-1" vertex="1">
                    <mxGeometry x="500.0000000000002" y="400" width="120" height="60" as="geometry"/>
                </mxCell>
                <mxCell id="fxNARhFos9hMNA192cl9-59" style="edgeStyle=orthogonalEdgeStyle;rounded=0;orthogonalLoop=1;jettySize=auto;html=1;exitX=0.5;exitY=0;exitDx=0;exitDy=0;entryX=0.691;entryY=1.059;entryDx=0;entryDy=0;entryPerimeter=0;fontSize=22;" parent="U1qoYTy0673jyCuHLi8l-1" source="fxNARhFos9hMNA192cl9-14" target="fxNARhFos9hMNA192cl9-11" edge="1">
                    <mxGeometry relative="1" as="geometry"/>
                </mxCell>
                <mxCell id="fxNARhFos9hMNA192cl9-14" value="Routes" style="rounded=1;whiteSpace=wrap;html=1;fillColor=#f8cecc;strokeColor=#b85450;" parent="U1qoYTy0673jyCuHLi8l-1" vertex="1">
                    <mxGeometry x="345.0000000000002" y="320" width="120" height="60" as="geometry"/>
                </mxCell>
                <mxCell id="fxNARhFos9hMNA192cl9-16" style="edgeStyle=orthogonalEdgeStyle;rounded=0;orthogonalLoop=1;jettySize=auto;html=1;exitX=1;exitY=0.5;exitDx=0;exitDy=0;fillColor=#f8cecc;" parent="U1qoYTy0673jyCuHLi8l-1" source="fxNARhFos9hMNA192cl9-17" edge="1">
                    <mxGeometry relative="1" as="geometry">
                        <mxPoint x="499.9999999999998" y="430" as="targetPoint"/>
                        <Array as="points">
                            <mxPoint x="320" y="350"/>
                            <mxPoint x="320" y="480"/>
                            <mxPoint x="480" y="480"/>
                            <mxPoint x="480" y="430"/>
                        </Array>
                    </mxGeometry>
                </mxCell>
                <mxCell id="fxNARhFos9hMNA192cl9-58" style="edgeStyle=orthogonalEdgeStyle;rounded=0;orthogonalLoop=1;jettySize=auto;html=1;exitX=0.5;exitY=0;exitDx=0;exitDy=0;entryX=0.25;entryY=1;entryDx=0;entryDy=0;fontSize=22;" parent="U1qoYTy0673jyCuHLi8l-1" source="fxNARhFos9hMNA192cl9-17" target="fxNARhFos9hMNA192cl9-11" edge="1">
                    <mxGeometry relative="1" as="geometry"/>
                </mxCell>
                <mxCell id="fxNARhFos9hMNA192cl9-17" value="Models" style="rounded=1;whiteSpace=wrap;html=1;fillColor=#f8cecc;strokeColor=#b85450;" parent="U1qoYTy0673jyCuHLi8l-1" vertex="1">
                    <mxGeometry x="180.00000000000023" y="320" width="120" height="60" as="geometry"/>
                </mxCell>
                <mxCell id="fxNARhFos9hMNA192cl9-57" style="edgeStyle=orthogonalEdgeStyle;rounded=0;orthogonalLoop=1;jettySize=auto;html=1;exitX=1;exitY=0.5;exitDx=0;exitDy=0;entryX=0;entryY=0.5;entryDx=0;entryDy=0;fontSize=22;" parent="U1qoYTy0673jyCuHLi8l-1" source="fxNARhFos9hMNA192cl9-19" target="fxNARhFos9hMNA192cl9-11" edge="1">
                    <mxGeometry relative="1" as="geometry"/>
                </mxCell>
                <mxCell id="fxNARhFos9hMNA192cl9-19" value="Server.js" style="rounded=1;whiteSpace=wrap;html=1;fillColor=#f8cecc;strokeColor=#b85450;" parent="U1qoYTy0673jyCuHLi8l-1" vertex="1">
                    <mxGeometry x="110.00000000000023" y="230" width="120" height="60" as="geometry"/>
                </mxCell>
                <mxCell id="fxNARhFos9hMNA192cl9-22" style="edgeStyle=orthogonalEdgeStyle;rounded=0;orthogonalLoop=1;jettySize=auto;html=1;exitX=0.5;exitY=0;exitDx=0;exitDy=0;entryX=0.75;entryY=1;entryDx=0;entryDy=0;fillColor=#f8cecc;" parent="U1qoYTy0673jyCuHLi8l-1" source="fxNARhFos9hMNA192cl9-23" target="fxNARhFos9hMNA192cl9-25" edge="1">
                    <mxGeometry relative="1" as="geometry"/>
                </mxCell>
                <mxCell id="fxNARhFos9hMNA192cl9-23" value="Post" style="rounded=1;whiteSpace=wrap;html=1;fillColor=#f8cecc;strokeColor=#b85450;" parent="U1qoYTy0673jyCuHLi8l-1" vertex="1">
                    <mxGeometry x="210.00000000000023" y="490" width="120" height="60" as="geometry"/>
                </mxCell>
                <mxCell id="fxNARhFos9hMNA192cl9-24" style="edgeStyle=orthogonalEdgeStyle;rounded=0;orthogonalLoop=1;jettySize=auto;html=1;exitX=0.5;exitY=0;exitDx=0;exitDy=0;entryX=0.5;entryY=1;entryDx=0;entryDy=0;fillColor=#f8cecc;" parent="U1qoYTy0673jyCuHLi8l-1" source="fxNARhFos9hMNA192cl9-25" target="fxNARhFos9hMNA192cl9-17" edge="1">
                    <mxGeometry relative="1" as="geometry"/>
                </mxCell>
                <mxCell id="fxNARhFos9hMNA192cl9-25" value="index" style="rounded=1;whiteSpace=wrap;html=1;fillColor=#f8cecc;strokeColor=#b85450;" parent="U1qoYTy0673jyCuHLi8l-1" vertex="1">
                    <mxGeometry x="180.00000000000023" y="400" width="120" height="60" as="geometry"/>
                </mxCell>
                <mxCell id="fxNARhFos9hMNA192cl9-26" style="edgeStyle=orthogonalEdgeStyle;rounded=0;orthogonalLoop=1;jettySize=auto;html=1;exitX=0.5;exitY=0;exitDx=0;exitDy=0;entryX=0.5;entryY=1;entryDx=0;entryDy=0;fillColor=#f8cecc;" parent="U1qoYTy0673jyCuHLi8l-1" source="fxNARhFos9hMNA192cl9-27" target="fxNARhFos9hMNA192cl9-14" edge="1">
                    <mxGeometry relative="1" as="geometry"/>
                </mxCell>
                <mxCell id="fxNARhFos9hMNA192cl9-27" value="index" style="rounded=1;whiteSpace=wrap;html=1;fillColor=#f8cecc;strokeColor=#b85450;" parent="U1qoYTy0673jyCuHLi8l-1" vertex="1">
                    <mxGeometry x="345.0000000000002" y="400" width="120" height="60" as="geometry"/>
                </mxCell>
                <mxCell id="fxNARhFos9hMNA192cl9-28" style="edgeStyle=orthogonalEdgeStyle;rounded=0;orthogonalLoop=1;jettySize=auto;html=1;exitX=0.5;exitY=0;exitDx=0;exitDy=0;entryX=0.5;entryY=1;entryDx=0;entryDy=0;fillColor=#f8cecc;strokeColor=#b85450;" parent="U1qoYTy0673jyCuHLi8l-1" source="fxNARhFos9hMNA192cl9-29" target="fxNARhFos9hMNA192cl9-13" edge="1">
                    <mxGeometry relative="1" as="geometry"/>
                </mxCell>
                <mxCell id="fxNARhFos9hMNA192cl9-29" value="index" style="rounded=1;whiteSpace=wrap;html=1;fillColor=#f8cecc;strokeColor=#b85450;" parent="U1qoYTy0673jyCuHLi8l-1" vertex="1">
                    <mxGeometry x="500.0000000000002" y="490" width="120" height="60" as="geometry"/>
                </mxCell>
                <mxCell id="fxNARhFos9hMNA192cl9-51" style="edgeStyle=orthogonalEdgeStyle;rounded=0;orthogonalLoop=1;jettySize=auto;html=1;exitX=0.5;exitY=0;exitDx=0;exitDy=0;entryX=0.5;entryY=1;entryDx=0;entryDy=0;fontSize=22;" parent="U1qoYTy0673jyCuHLi8l-1" source="fxNARhFos9hMNA192cl9-32" target="fxNARhFos9hMNA192cl9-49" edge="1">
                    <mxGeometry relative="1" as="geometry">
                        <Array as="points">
                            <mxPoint x="130" y="700"/>
                            <mxPoint x="840" y="700"/>
                        </Array>
                    </mxGeometry>
                </mxCell>
                <mxCell id="fxNARhFos9hMNA192cl9-32" value="index Route" style="rounded=1;whiteSpace=wrap;html=1;fillColor=#f8cecc;strokeColor=#b85450;" parent="U1qoYTy0673jyCuHLi8l-1" vertex="1">
                    <mxGeometry x="70.00000000000023" y="720" width="120" height="60" as="geometry"/>
                </mxCell>
                <mxCell id="fxNARhFos9hMNA192cl9-52" style="edgeStyle=orthogonalEdgeStyle;rounded=0;orthogonalLoop=1;jettySize=auto;html=1;exitX=0.5;exitY=0;exitDx=0;exitDy=0;entryX=0.5;entryY=1;entryDx=0;entryDy=0;fontSize=22;" parent="U1qoYTy0673jyCuHLi8l-1" source="fxNARhFos9hMNA192cl9-34" target="fxNARhFos9hMNA192cl9-49" edge="1">
                    <mxGeometry relative="1" as="geometry">
                        <Array as="points">
                            <mxPoint x="270" y="700"/>
                            <mxPoint x="840" y="700"/>
                        </Array>
                    </mxGeometry>
                </mxCell>
                <mxCell id="fxNARhFos9hMNA192cl9-34" value="Show Route" style="rounded=1;whiteSpace=wrap;html=1;fillColor=#f8cecc;strokeColor=#b85450;" parent="U1qoYTy0673jyCuHLi8l-1" vertex="1">
                    <mxGeometry x="210.00000000000023" y="720" width="120" height="60" as="geometry"/>
                </mxCell>
                <mxCell id="fxNARhFos9hMNA192cl9-54" style="edgeStyle=orthogonalEdgeStyle;rounded=0;orthogonalLoop=1;jettySize=auto;html=1;exitX=0.5;exitY=0;exitDx=0;exitDy=0;fontSize=22;" parent="U1qoYTy0673jyCuHLi8l-1" source="fxNARhFos9hMNA192cl9-36" edge="1">
                    <mxGeometry relative="1" as="geometry">
                        <mxPoint x="840" y="550" as="targetPoint"/>
                        <Array as="points">
                            <mxPoint x="545" y="700"/>
                            <mxPoint x="840" y="700"/>
                        </Array>
                    </mxGeometry>
                </mxCell>
                <mxCell id="fxNARhFos9hMNA192cl9-36" value="Update Route" style="rounded=1;whiteSpace=wrap;html=1;fillColor=#f8cecc;strokeColor=#b85450;" parent="U1qoYTy0673jyCuHLi8l-1" vertex="1">
                    <mxGeometry x="485.0000000000002" y="720" width="120" height="60" as="geometry"/>
                </mxCell>
                <mxCell id="fxNARhFos9hMNA192cl9-55" style="edgeStyle=orthogonalEdgeStyle;rounded=0;orthogonalLoop=1;jettySize=auto;html=1;exitX=0.5;exitY=0;exitDx=0;exitDy=0;entryX=0.5;entryY=1;entryDx=0;entryDy=0;fontSize=22;" parent="U1qoYTy0673jyCuHLi8l-1" source="fxNARhFos9hMNA192cl9-38" target="fxNARhFos9hMNA192cl9-49" edge="1">
                    <mxGeometry relative="1" as="geometry">
                        <Array as="points">
                            <mxPoint x="690" y="700"/>
                            <mxPoint x="840" y="700"/>
                        </Array>
                    </mxGeometry>
                </mxCell>
                <mxCell id="fxNARhFos9hMNA192cl9-38" value="Delete Route" style="rounded=1;whiteSpace=wrap;html=1;fillColor=#f8cecc;strokeColor=#b85450;" parent="U1qoYTy0673jyCuHLi8l-1" vertex="1">
                    <mxGeometry x="630.0000000000002" y="720" width="120" height="60" as="geometry"/>
                </mxCell>
                <mxCell id="fxNARhFos9hMNA192cl9-53" style="edgeStyle=orthogonalEdgeStyle;rounded=0;orthogonalLoop=1;jettySize=auto;html=1;exitX=0.5;exitY=0;exitDx=0;exitDy=0;entryX=0.5;entryY=1;entryDx=0;entryDy=0;fontSize=22;" parent="U1qoYTy0673jyCuHLi8l-1" source="fxNARhFos9hMNA192cl9-40" target="fxNARhFos9hMNA192cl9-49" edge="1">
                    <mxGeometry relative="1" as="geometry">
                        <Array as="points">
                            <mxPoint x="405" y="700"/>
                            <mxPoint x="840" y="700"/>
                        </Array>
                    </mxGeometry>
                </mxCell>
                <mxCell id="fxNARhFos9hMNA192cl9-40" value="Create Route" style="rounded=1;whiteSpace=wrap;html=1;fillColor=#f8cecc;strokeColor=#b85450;" parent="U1qoYTy0673jyCuHLi8l-1" vertex="1">
                    <mxGeometry x="345.0000000000002" y="720" width="120" height="60" as="geometry"/>
                </mxCell>
                <mxCell id="fxNARhFos9hMNA192cl9-44" value="Post" style="rounded=1;whiteSpace=wrap;html=1;fillColor=#f8cecc;strokeColor=#b85450;" parent="U1qoYTy0673jyCuHLi8l-1" vertex="1">
                    <mxGeometry x="780.0000000000002" y="490" width="120" height="60" as="geometry"/>
                </mxCell>
                <mxCell id="fxNARhFos9hMNA192cl9-50" style="edgeStyle=orthogonalEdgeStyle;rounded=0;orthogonalLoop=1;jettySize=auto;html=1;exitX=0.5;exitY=0;exitDx=0;exitDy=0;fontSize=22;" parent="U1qoYTy0673jyCuHLi8l-1" source="fxNARhFos9hMNA192cl9-49" edge="1">
                    <mxGeometry relative="1" as="geometry">
                        <mxPoint x="560" y="460" as="targetPoint"/>
                        <Array as="points">
                            <mxPoint x="840" y="480"/>
                            <mxPoint x="560" y="480"/>
                        </Array>
                    </mxGeometry>
                </mxCell>
                <mxCell id="fxNARhFos9hMNA192cl9-49" value="Post" style="rounded=1;whiteSpace=wrap;html=1;fillColor=#f8cecc;strokeColor=#b85450;" parent="U1qoYTy0673jyCuHLi8l-1" vertex="1">
                    <mxGeometry x="780.0000000000002" y="490" width="120" height="60" as="geometry"/>
                </mxCell>
                <mxCell id="fxNARhFos9hMNA192cl9-70" style="edgeStyle=orthogonalEdgeStyle;rounded=0;orthogonalLoop=1;jettySize=auto;html=1;exitX=0.5;exitY=0;exitDx=0;exitDy=0;strokeColor=#000000;fontSize=22;" parent="U1qoYTy0673jyCuHLi8l-1" source="fxNARhFos9hMNA192cl9-60" target="fxNARhFos9hMNA192cl9-65" edge="1">
                    <mxGeometry relative="1" as="geometry"/>
                </mxCell>
                <mxCell id="fxNARhFos9hMNA192cl9-60" value="index Route" style="rounded=1;whiteSpace=wrap;html=1;fillColor=#f8cecc;strokeColor=#b85450;" parent="U1qoYTy0673jyCuHLi8l-1" vertex="1">
                    <mxGeometry x="70.00000000000023" y="620" width="120" height="60" as="geometry"/>
                </mxCell>
                <mxCell id="fxNARhFos9hMNA192cl9-71" style="edgeStyle=orthogonalEdgeStyle;rounded=0;orthogonalLoop=1;jettySize=auto;html=1;exitX=0.5;exitY=0;exitDx=0;exitDy=0;strokeColor=#000000;fontSize=22;" parent="U1qoYTy0673jyCuHLi8l-1" source="fxNARhFos9hMNA192cl9-61" edge="1">
                    <mxGeometry relative="1" as="geometry">
                        <mxPoint x="700" y="550" as="targetPoint"/>
                    </mxGeometry>
                </mxCell>
                <mxCell id="fxNARhFos9hMNA192cl9-61" value="Show Route" style="rounded=1;whiteSpace=wrap;html=1;fillColor=#f8cecc;strokeColor=#b85450;" parent="U1qoYTy0673jyCuHLi8l-1" vertex="1">
                    <mxGeometry x="210.00000000000023" y="620" width="120" height="60" as="geometry"/>
                </mxCell>
                <mxCell id="fxNARhFos9hMNA192cl9-73" style="edgeStyle=orthogonalEdgeStyle;rounded=0;orthogonalLoop=1;jettySize=auto;html=1;exitX=0.5;exitY=0;exitDx=0;exitDy=0;strokeColor=#000000;fontSize=22;" parent="U1qoYTy0673jyCuHLi8l-1" source="fxNARhFos9hMNA192cl9-62" edge="1">
                    <mxGeometry relative="1" as="geometry">
                        <mxPoint x="700" y="550" as="targetPoint"/>
                    </mxGeometry>
                </mxCell>
                <mxCell id="fxNARhFos9hMNA192cl9-62" value="Update Route" style="rounded=1;whiteSpace=wrap;html=1;fillColor=#f8cecc;strokeColor=#b85450;" parent="U1qoYTy0673jyCuHLi8l-1" vertex="1">
                    <mxGeometry x="485.0000000000002" y="620" width="120" height="60" as="geometry"/>
                </mxCell>
                <mxCell id="fxNARhFos9hMNA192cl9-74" style="edgeStyle=orthogonalEdgeStyle;rounded=0;orthogonalLoop=1;jettySize=auto;html=1;exitX=0.5;exitY=0;exitDx=0;exitDy=0;strokeColor=#000000;fontSize=22;" parent="U1qoYTy0673jyCuHLi8l-1" source="fxNARhFos9hMNA192cl9-63" edge="1">
                    <mxGeometry relative="1" as="geometry">
                        <mxPoint x="700" y="550" as="targetPoint"/>
                    </mxGeometry>
                </mxCell>
                <mxCell id="fxNARhFos9hMNA192cl9-63" value="Delete Route" style="rounded=1;whiteSpace=wrap;html=1;fillColor=#f8cecc;strokeColor=#b85450;" parent="U1qoYTy0673jyCuHLi8l-1" vertex="1">
                    <mxGeometry x="630.0000000000002" y="620" width="120" height="60" as="geometry"/>
                </mxCell>
                <mxCell id="fxNARhFos9hMNA192cl9-72" style="edgeStyle=orthogonalEdgeStyle;rounded=0;orthogonalLoop=1;jettySize=auto;html=1;exitX=0.5;exitY=0;exitDx=0;exitDy=0;strokeColor=#000000;fontSize=22;" parent="U1qoYTy0673jyCuHLi8l-1" source="fxNARhFos9hMNA192cl9-64" edge="1">
                    <mxGeometry relative="1" as="geometry">
                        <mxPoint x="700" y="550" as="targetPoint"/>
                    </mxGeometry>
                </mxCell>
                <mxCell id="fxNARhFos9hMNA192cl9-64" value="Create Route" style="rounded=1;whiteSpace=wrap;html=1;fillColor=#f8cecc;strokeColor=#b85450;" parent="U1qoYTy0673jyCuHLi8l-1" vertex="1">
                    <mxGeometry x="345.0000000000002" y="620" width="120" height="60" as="geometry"/>
                </mxCell>
                <mxCell id="fxNARhFos9hMNA192cl9-68" style="edgeStyle=orthogonalEdgeStyle;rounded=0;orthogonalLoop=1;jettySize=auto;html=1;entryX=0.5;entryY=1;entryDx=0;entryDy=0;strokeColor=#000000;fontSize=22;" parent="U1qoYTy0673jyCuHLi8l-1" source="fxNARhFos9hMNA192cl9-65" target="fxNARhFos9hMNA192cl9-13" edge="1">
                    <mxGeometry relative="1" as="geometry">
                        <Array as="points">
                            <mxPoint x="700" y="480"/>
                            <mxPoint x="560" y="480"/>
                        </Array>
                    </mxGeometry>
                </mxCell>
                <mxCell id="fxNARhFos9hMNA192cl9-65" value="User" style="rounded=1;whiteSpace=wrap;html=1;fillColor=#f8cecc;strokeColor=#b85450;" parent="U1qoYTy0673jyCuHLi8l-1" vertex="1">
                    <mxGeometry x="640.0000000000002" y="490" width="120" height="60" as="geometry"/>
                </mxCell>
                <mxCell id="fxNARhFos9hMNA192cl9-67" style="edgeStyle=orthogonalEdgeStyle;rounded=0;orthogonalLoop=1;jettySize=auto;html=1;entryX=0;entryY=0.5;entryDx=0;entryDy=0;strokeColor=#000000;fontSize=22;" parent="U1qoYTy0673jyCuHLi8l-1" source="fxNARhFos9hMNA192cl9-66" target="fxNARhFos9hMNA192cl9-25" edge="1">
                    <mxGeometry relative="1" as="geometry"/>
                </mxCell>
                <mxCell id="fxNARhFos9hMNA192cl9-66" value="User" style="rounded=1;whiteSpace=wrap;html=1;fillColor=#f8cecc;strokeColor=#b85450;" parent="U1qoYTy0673jyCuHLi8l-1" vertex="1">
                    <mxGeometry x="60.00000000000023" y="490" width="120" height="60" as="geometry"/>
                </mxCell>
                <mxCell id="fxNARhFos9hMNA192cl9-75" value="React" style="rounded=1;whiteSpace=wrap;html=1;fillColor=#d5e8d4;strokeColor=#82b366;" parent="U1qoYTy0673jyCuHLi8l-1" vertex="1">
                    <mxGeometry x="1160.0000000000002" y="240" width="120" height="60" as="geometry"/>
                </mxCell>
                <mxCell id="fxNARhFos9hMNA192cl9-76" style="edgeStyle=orthogonalEdgeStyle;rounded=0;orthogonalLoop=1;jettySize=auto;html=1;exitX=0.5;exitY=0;exitDx=0;exitDy=0;entryX=1;entryY=0.5;entryDx=0;entryDy=0;strokeColor=#000000;" parent="U1qoYTy0673jyCuHLi8l-1" source="fxNARhFos9hMNA192cl9-77" target="fxNARhFos9hMNA192cl9-75" edge="1">
                    <mxGeometry relative="1" as="geometry"/>
                </mxCell>
                <mxCell id="fxNARhFos9hMNA192cl9-77" value="Components" style="rounded=1;whiteSpace=wrap;html=1;fillColor=#f8cecc;strokeColor=#b85450;" parent="U1qoYTy0673jyCuHLi8l-1" vertex="1">
                    <mxGeometry x="1305" y="340" width="120" height="60" as="geometry"/>
                </mxCell>
                <mxCell id="fxNARhFos9hMNA192cl9-78" style="edgeStyle=orthogonalEdgeStyle;rounded=0;orthogonalLoop=1;jettySize=auto;html=1;exitX=0.5;exitY=0;exitDx=0;exitDy=0;entryX=0.5;entryY=1;entryDx=0;entryDy=0;strokeColor=#000000;" parent="U1qoYTy0673jyCuHLi8l-1" source="fxNARhFos9hMNA192cl9-79" target="fxNARhFos9hMNA192cl9-75" edge="1">
                    <mxGeometry relative="1" as="geometry"/>
                </mxCell>
                <mxCell id="fxNARhFos9hMNA192cl9-79" value="Pages" style="rounded=1;whiteSpace=wrap;html=1;fillColor=#f8cecc;strokeColor=#b85450;" parent="U1qoYTy0673jyCuHLi8l-1" vertex="1">
                    <mxGeometry x="1160" y="340" width="120" height="60" as="geometry"/>
                </mxCell>
                <mxCell id="fxNARhFos9hMNA192cl9-80" style="edgeStyle=orthogonalEdgeStyle;rounded=0;orthogonalLoop=1;jettySize=auto;html=1;exitX=0.5;exitY=0;exitDx=0;exitDy=0;entryX=0;entryY=0.5;entryDx=0;entryDy=0;strokeColor=#000000;" parent="U1qoYTy0673jyCuHLi8l-1" source="fxNARhFos9hMNA192cl9-81" target="fxNARhFos9hMNA192cl9-75" edge="1">
                    <mxGeometry relative="1" as="geometry"/>
                </mxCell>
                <mxCell id="fxNARhFos9hMNA192cl9-81" value="Config" style="rounded=1;whiteSpace=wrap;html=1;fillColor=#d5e8d4;strokeColor=#82b366;" parent="U1qoYTy0673jyCuHLi8l-1" vertex="1">
                    <mxGeometry x="1010" y="340" width="120" height="60" as="geometry"/>
                </mxCell>
                <mxCell id="fxNARhFos9hMNA192cl9-82" style="edgeStyle=orthogonalEdgeStyle;rounded=0;orthogonalLoop=1;jettySize=auto;html=1;exitX=0.5;exitY=0;exitDx=0;exitDy=0;strokeColor=#000000;" parent="U1qoYTy0673jyCuHLi8l-1" source="fxNARhFos9hMNA192cl9-83" target="fxNARhFos9hMNA192cl9-81" edge="1">
                    <mxGeometry relative="1" as="geometry"/>
                </mxCell>
                <mxCell id="fxNARhFos9hMNA192cl9-83" value="Routes" style="rounded=1;whiteSpace=wrap;html=1;fillColor=#d5e8d4;strokeColor=#82b366;" parent="U1qoYTy0673jyCuHLi8l-1" vertex="1">
                    <mxGeometry x="1010" y="430" width="120" height="60" as="geometry"/>
                </mxCell>
                <mxCell id="fxNARhFos9hMNA192cl9-84" style="edgeStyle=orthogonalEdgeStyle;rounded=0;orthogonalLoop=1;jettySize=auto;html=1;strokeColor=#000000;" parent="U1qoYTy0673jyCuHLi8l-1" source="fxNARhFos9hMNA192cl9-86" edge="1">
                    <mxGeometry relative="1" as="geometry">
                        <mxPoint x="1220" y="400" as="targetPoint"/>
                    </mxGeometry>
                </mxCell>
                <mxCell id="fxNARhFos9hMNA192cl9-85" style="edgeStyle=orthogonalEdgeStyle;rounded=0;orthogonalLoop=1;jettySize=auto;html=1;exitX=0;exitY=0.5;exitDx=0;exitDy=0;strokeColor=#000000;" parent="U1qoYTy0673jyCuHLi8l-1" source="fxNARhFos9hMNA192cl9-86" target="fxNARhFos9hMNA192cl9-83" edge="1">
                    <mxGeometry relative="1" as="geometry"/>
                </mxCell>
                <mxCell id="fxNARhFos9hMNA192cl9-86" value="Home" style="rounded=1;whiteSpace=wrap;html=1;fillColor=#f8cecc;strokeColor=#b85450;" parent="U1qoYTy0673jyCuHLi8l-1" vertex="1">
                    <mxGeometry x="1305" y="430" width="120" height="60" as="geometry"/>
                </mxCell>
                <mxCell id="fxNARhFos9hMNA192cl9-87" style="edgeStyle=orthogonalEdgeStyle;rounded=0;orthogonalLoop=1;jettySize=auto;html=1;strokeColor=#000000;" parent="U1qoYTy0673jyCuHLi8l-1" source="fxNARhFos9hMNA192cl9-89" target="fxNARhFos9hMNA192cl9-79" edge="1">
                    <mxGeometry relative="1" as="geometry"/>
                </mxCell>
                <mxCell id="fxNARhFos9hMNA192cl9-88" style="edgeStyle=orthogonalEdgeStyle;rounded=0;orthogonalLoop=1;jettySize=auto;html=1;exitX=0;exitY=0.5;exitDx=0;exitDy=0;entryX=0.5;entryY=1;entryDx=0;entryDy=0;strokeColor=#000000;" parent="U1qoYTy0673jyCuHLi8l-1" source="fxNARhFos9hMNA192cl9-89" target="fxNARhFos9hMNA192cl9-83" edge="1">
                    <mxGeometry relative="1" as="geometry"/>
                </mxCell>
                <mxCell id="fxNARhFos9hMNA192cl9-89" value="New Post" style="rounded=1;whiteSpace=wrap;html=1;fillColor=#f8cecc;strokeColor=#b85450;" parent="U1qoYTy0673jyCuHLi8l-1" vertex="1">
                    <mxGeometry x="1305" y="520" width="120" height="60" as="geometry"/>
                </mxCell>
                <mxCell id="fxNARhFos9hMNA192cl9-90" style="edgeStyle=orthogonalEdgeStyle;rounded=0;orthogonalLoop=1;jettySize=auto;html=1;entryX=0.5;entryY=1;entryDx=0;entryDy=0;strokeColor=#000000;" parent="U1qoYTy0673jyCuHLi8l-1" source="fxNARhFos9hMNA192cl9-92" target="fxNARhFos9hMNA192cl9-79" edge="1">
                    <mxGeometry relative="1" as="geometry"/>
                </mxCell>
                <mxCell id="fxNARhFos9hMNA192cl9-91" style="edgeStyle=orthogonalEdgeStyle;rounded=0;orthogonalLoop=1;jettySize=auto;html=1;exitX=0;exitY=0.5;exitDx=0;exitDy=0;strokeColor=#000000;" parent="U1qoYTy0673jyCuHLi8l-1" source="fxNARhFos9hMNA192cl9-92" edge="1">
                    <mxGeometry relative="1" as="geometry">
                        <mxPoint x="1070" y="490" as="targetPoint"/>
                    </mxGeometry>
                </mxCell>
                <mxCell id="fxNARhFos9hMNA192cl9-92" value="Edit Post" style="rounded=1;whiteSpace=wrap;html=1;fillColor=#f8cecc;strokeColor=#b85450;" parent="U1qoYTy0673jyCuHLi8l-1" vertex="1">
                    <mxGeometry x="1305" y="610" width="120" height="60" as="geometry"/>
                </mxCell>
                <mxCell id="fxNARhFos9hMNA192cl9-93" style="edgeStyle=orthogonalEdgeStyle;rounded=0;orthogonalLoop=1;jettySize=auto;html=1;entryX=1;entryY=0.5;entryDx=0;entryDy=0;strokeColor=#000000;" parent="U1qoYTy0673jyCuHLi8l-1" source="fxNARhFos9hMNA192cl9-94" target="fxNARhFos9hMNA192cl9-75" edge="1">
                    <mxGeometry relative="1" as="geometry"/>
                </mxCell>
                <mxCell id="fxNARhFos9hMNA192cl9-94" value="CSS" style="rounded=1;whiteSpace=wrap;html=1;fillColor=#d5e8d4;strokeColor=#82b366;" parent="U1qoYTy0673jyCuHLi8l-1" vertex="1">
                    <mxGeometry x="1450.0000000000002" y="240" width="120" height="60" as="geometry"/>
                </mxCell>
                <mxCell id="fxNARhFos9hMNA192cl9-95" style="edgeStyle=orthogonalEdgeStyle;rounded=0;orthogonalLoop=1;jettySize=auto;html=1;exitX=0;exitY=0.5;exitDx=0;exitDy=0;entryX=1;entryY=0.5;entryDx=0;entryDy=0;strokeColor=#000000;" parent="U1qoYTy0673jyCuHLi8l-1" source="fxNARhFos9hMNA192cl9-96" target="fxNARhFos9hMNA192cl9-77" edge="1">
                    <mxGeometry relative="1" as="geometry"/>
                </mxCell>
                <mxCell id="fxNARhFos9hMNA192cl9-96" value="Navbar" style="rounded=1;whiteSpace=wrap;html=1;fillColor=#f8cecc;strokeColor=#b85450;" parent="U1qoYTy0673jyCuHLi8l-1" vertex="1">
                    <mxGeometry x="1470" y="430" width="120" height="60" as="geometry"/>
                </mxCell>
                <mxCell id="fxNARhFos9hMNA192cl9-99" style="edgeStyle=orthogonalEdgeStyle;rounded=0;orthogonalLoop=1;jettySize=auto;html=1;exitX=0;exitY=0.5;exitDx=0;exitDy=0;entryX=1;entryY=0.5;entryDx=0;entryDy=0;strokeColor=#000000;" parent="U1qoYTy0673jyCuHLi8l-1" source="fxNARhFos9hMNA192cl9-100" target="fxNARhFos9hMNA192cl9-77" edge="1">
                    <mxGeometry relative="1" as="geometry"/>
                </mxCell>
                <mxCell id="fxNARhFos9hMNA192cl9-100" value="Details" style="rounded=1;whiteSpace=wrap;html=1;fillColor=#f8cecc;strokeColor=#b85450;" parent="U1qoYTy0673jyCuHLi8l-1" vertex="1">
                    <mxGeometry x="1470" y="610" width="120" height="60" as="geometry"/>
                </mxCell>
                <mxCell id="fxNARhFos9hMNA192cl9-103" style="edgeStyle=orthogonalEdgeStyle;rounded=0;orthogonalLoop=1;jettySize=auto;html=1;exitX=0.5;exitY=0;exitDx=0;exitDy=0;strokeColor=#000000;" parent="U1qoYTy0673jyCuHLi8l-1" source="fxNARhFos9hMNA192cl9-105" edge="1">
                    <mxGeometry relative="1" as="geometry">
                        <mxPoint x="1530" y="670" as="targetPoint"/>
                        <Array as="points">
                            <mxPoint x="1390" y="690"/>
                            <mxPoint x="1530" y="690"/>
                        </Array>
                    </mxGeometry>
                </mxCell>
                <mxCell id="fxNARhFos9hMNA192cl9-104" style="edgeStyle=orthogonalEdgeStyle;rounded=0;orthogonalLoop=1;jettySize=auto;html=1;exitX=0.75;exitY=0;exitDx=0;exitDy=0;entryX=1;entryY=0.5;entryDx=0;entryDy=0;strokeColor=#000000;" parent="U1qoYTy0673jyCuHLi8l-1" source="fxNARhFos9hMNA192cl9-105" target="fxNARhFos9hMNA192cl9-89" edge="1">
                    <mxGeometry relative="1" as="geometry">
                        <Array as="points">
                            <mxPoint x="1440" y="700"/>
                            <mxPoint x="1440" y="550"/>
                        </Array>
                    </mxGeometry>
                </mxCell>
                <mxCell id="fxNARhFos9hMNA192cl9-105" value="Fetch Post POST" style="rounded=1;whiteSpace=wrap;html=1;fillColor=#f8cecc;" parent="U1qoYTy0673jyCuHLi8l-1" vertex="1">
                    <mxGeometry x="1330" y="700" width="120" height="60" as="geometry"/>
                </mxCell>
                <mxCell id="fxNARhFos9hMNA192cl9-108" style="edgeStyle=orthogonalEdgeStyle;rounded=0;orthogonalLoop=1;jettySize=auto;html=1;exitX=0.5;exitY=0;exitDx=0;exitDy=0;strokeColor=#000000;" parent="U1qoYTy0673jyCuHLi8l-1" source="fxNARhFos9hMNA192cl9-110" edge="1">
                    <mxGeometry relative="1" as="geometry">
                        <mxPoint x="1530" y="670" as="targetPoint"/>
                    </mxGeometry>
                </mxCell>
                <mxCell id="fxNARhFos9hMNA192cl9-109" style="edgeStyle=orthogonalEdgeStyle;rounded=0;orthogonalLoop=1;jettySize=auto;html=1;exitX=0;exitY=0.5;exitDx=0;exitDy=0;entryX=1;entryY=0.75;entryDx=0;entryDy=0;strokeColor=#000000;" parent="U1qoYTy0673jyCuHLi8l-1" source="fxNARhFos9hMNA192cl9-110" target="fxNARhFos9hMNA192cl9-92" edge="1">
                    <mxGeometry relative="1" as="geometry">
                        <Array as="points">
                            <mxPoint x="1460" y="730"/>
                            <mxPoint x="1460" y="655"/>
                        </Array>
                    </mxGeometry>
                </mxCell>
                <mxCell id="fxNARhFos9hMNA192cl9-110" value="Fetch Post PUT" style="rounded=1;whiteSpace=wrap;html=1;fillColor=#f8cecc;strokeColor=#b85450;" parent="U1qoYTy0673jyCuHLi8l-1" vertex="1">
                    <mxGeometry x="1470" y="700" width="120" height="60" as="geometry"/>
                </mxCell>
                <mxCell id="fxNARhFos9hMNA192cl9-111" style="edgeStyle=orthogonalEdgeStyle;rounded=0;orthogonalLoop=1;jettySize=auto;html=1;exitX=0.5;exitY=0;exitDx=0;exitDy=0;strokeColor=#000000;" parent="U1qoYTy0673jyCuHLi8l-1" source="fxNARhFos9hMNA192cl9-113" edge="1">
                    <mxGeometry relative="1" as="geometry">
                        <mxPoint x="1530" y="670" as="targetPoint"/>
                        <Array as="points">
                            <mxPoint x="1670" y="690"/>
                            <mxPoint x="1530" y="690"/>
                        </Array>
                    </mxGeometry>
                </mxCell>
                <mxCell id="fxNARhFos9hMNA192cl9-112" style="edgeStyle=orthogonalEdgeStyle;rounded=0;orthogonalLoop=1;jettySize=auto;html=1;exitX=0.75;exitY=0;exitDx=0;exitDy=0;entryX=0.75;entryY=1;entryDx=0;entryDy=0;strokeColor=#000000;" parent="U1qoYTy0673jyCuHLi8l-1" source="fxNARhFos9hMNA192cl9-113" target="fxNARhFos9hMNA192cl9-117" edge="1">
                    <mxGeometry relative="1" as="geometry"/>
                </mxCell>
                <mxCell id="fxNARhFos9hMNA192cl9-113" value="Fetch Post DELETE" style="rounded=1;whiteSpace=wrap;html=1;fillColor=#f8cecc;strokeColor=#b85450;" parent="U1qoYTy0673jyCuHLi8l-1" vertex="1">
                    <mxGeometry x="1610" y="700" width="120" height="60" as="geometry"/>
                </mxCell>
                <mxCell id="fxNARhFos9hMNA192cl9-114" style="edgeStyle=orthogonalEdgeStyle;rounded=0;orthogonalLoop=1;jettySize=auto;html=1;exitX=0.5;exitY=0;exitDx=0;exitDy=0;strokeColor=#000000;" parent="U1qoYTy0673jyCuHLi8l-1" source="fxNARhFos9hMNA192cl9-115" target="fxNARhFos9hMNA192cl9-100" edge="1">
                    <mxGeometry relative="1" as="geometry">
                        <Array as="points">
                            <mxPoint x="1250" y="690"/>
                            <mxPoint x="1530" y="690"/>
                        </Array>
                    </mxGeometry>
                </mxCell>
                <mxCell id="fxNARhFos9hMNA192cl9-115" value="Fetch Post GET" style="rounded=1;whiteSpace=wrap;html=1;fillColor=#f8cecc;" parent="U1qoYTy0673jyCuHLi8l-1" vertex="1">
                    <mxGeometry x="1190" y="700" width="120" height="60" as="geometry"/>
                </mxCell>
                <mxCell id="fxNARhFos9hMNA192cl9-116" style="edgeStyle=orthogonalEdgeStyle;rounded=0;orthogonalLoop=1;jettySize=auto;html=1;exitX=0;exitY=0.5;exitDx=0;exitDy=0;entryX=1;entryY=0.5;entryDx=0;entryDy=0;strokeColor=#000000;" parent="U1qoYTy0673jyCuHLi8l-1" source="fxNARhFos9hMNA192cl9-117" target="fxNARhFos9hMNA192cl9-100" edge="1">
                    <mxGeometry relative="1" as="geometry"/>
                </mxCell>
                <mxCell id="fxNARhFos9hMNA192cl9-117" value="Delete confirm" style="rounded=1;whiteSpace=wrap;html=1;fillColor=#f8cecc;strokeColor=#b85450;" parent="U1qoYTy0673jyCuHLi8l-1" vertex="1">
                    <mxGeometry x="1610" y="610" width="120" height="60" as="geometry"/>
                </mxCell>
                <mxCell id="fxNARhFos9hMNA192cl9-118" style="edgeStyle=orthogonalEdgeStyle;rounded=0;orthogonalLoop=1;jettySize=auto;html=1;entryX=1;entryY=1;entryDx=0;entryDy=0;strokeColor=#000000;" parent="U1qoYTy0673jyCuHLi8l-1" source="fxNARhFos9hMNA192cl9-119" target="fxNARhFos9hMNA192cl9-100" edge="1">
                    <mxGeometry relative="1" as="geometry">
                        <Array as="points">
                            <mxPoint x="1600" y="810"/>
                            <mxPoint x="1600" y="670"/>
                        </Array>
                    </mxGeometry>
                </mxCell>
                <mxCell id="fxNARhFos9hMNA192cl9-119" value="Post Card" style="rounded=1;whiteSpace=wrap;html=1;fillColor=#f8cecc;" parent="U1qoYTy0673jyCuHLi8l-1" vertex="1">
                    <mxGeometry x="1470" y="780" width="120" height="60" as="geometry"/>
                </mxCell>
                <mxCell id="fxNARhFos9hMNA192cl9-120" value="Fetch Post GET" style="rounded=1;whiteSpace=wrap;html=1;fillColor=#f8cecc;strokeColor=#b85450;" parent="U1qoYTy0673jyCuHLi8l-1" vertex="1">
                    <mxGeometry x="1190" y="700" width="120" height="60" as="geometry"/>
                </mxCell>
                <mxCell id="fxNARhFos9hMNA192cl9-121" value="Fetch Post POST" style="rounded=1;whiteSpace=wrap;html=1;fillColor=#f8cecc;strokeColor=#b85450;" parent="U1qoYTy0673jyCuHLi8l-1" vertex="1">
                    <mxGeometry x="1330" y="700" width="120" height="60" as="geometry"/>
                </mxCell>
                <mxCell id="fxNARhFos9hMNA192cl9-122" value="Post Card" style="rounded=1;whiteSpace=wrap;html=1;fillColor=#f8cecc;strokeColor=#b85450;" parent="U1qoYTy0673jyCuHLi8l-1" vertex="1">
                    <mxGeometry x="1470" y="780" width="120" height="60" as="geometry"/>
                </mxCell>
                <mxCell id="fxNARhFos9hMNA192cl9-123" value="CSS" style="rounded=1;whiteSpace=wrap;html=1;fillColor=#f8cecc;strokeColor=#b85450;" parent="U1qoYTy0673jyCuHLi8l-1" vertex="1">
                    <mxGeometry x="1450.0000000000002" y="240" width="120" height="60" as="geometry"/>
                </mxCell>
                <mxCell id="fxNARhFos9hMNA192cl9-128" style="edgeStyle=orthogonalEdgeStyle;rounded=0;orthogonalLoop=1;jettySize=auto;html=1;exitX=0.5;exitY=0;exitDx=0;exitDy=0;entryX=0.5;entryY=1;entryDx=0;entryDy=0;strokeColor=#000000;fontSize=22;" parent="U1qoYTy0673jyCuHLi8l-1" source="fxNARhFos9hMNA192cl9-125" target="fxNARhFos9hMNA192cl9-2" edge="1">
                    <mxGeometry relative="1" as="geometry"/>
                </mxCell>
                <mxCell id="fxNARhFos9hMNA192cl9-125" value="React" style="rounded=1;whiteSpace=wrap;html=1;fillColor=#f8cecc;strokeColor=#b85450;" parent="U1qoYTy0673jyCuHLi8l-1" vertex="1">
                    <mxGeometry x="1160.0000000000002" y="240" width="120" height="60" as="geometry"/>
                </mxCell>
                <mxCell id="fxNARhFos9hMNA192cl9-126" value="Config" style="rounded=1;whiteSpace=wrap;html=1;fillColor=#f8cecc;strokeColor=#b85450;" parent="U1qoYTy0673jyCuHLi8l-1" vertex="1">
                    <mxGeometry x="1010" y="340" width="120" height="60" as="geometry"/>
                </mxCell>
                <mxCell id="fxNARhFos9hMNA192cl9-127" value="Routes" style="rounded=1;whiteSpace=wrap;html=1;fillColor=#f8cecc;strokeColor=#b85450;" parent="U1qoYTy0673jyCuHLi8l-1" vertex="1">
                    <mxGeometry x="1010" y="430" width="120" height="60" as="geometry"/>
                </mxCell>
            </root>
        </mxGraphModel>
    </diagram>
</mxfile>